<svg width="19" height="15" viewBox="0 0 19 15" fill="none" xmlns="http://www.w3.org/2000/svg">
<path d="M19 7.5C19 7.5 15.4375 0.96875 9.5 0.96875C3.5625 0.96875 0 7.5 0 7.5C0 7.5 3.5625 14.0312 9.5 14.0312C15.4375 14.0312 19 7.5 19 7.5ZM1.39294 7.5C1.96711 6.62733 2.62751 5.81456 3.36419 5.07394C4.8925 3.54325 6.9825 2.15625 9.5 2.15625C12.0175 2.15625 14.1063 3.54325 15.637 5.07394C16.3737 5.81456 17.0341 6.62733 17.6083 7.5C17.5394 7.60331 17.4634 7.71731 17.3767 7.842C16.9789 8.412 16.3911 9.172 15.637 9.92606C14.1063 11.4568 12.0163 12.8438 9.5 12.8438C6.9825 12.8438 4.89369 11.4568 3.363 9.92606C2.62633 9.18543 1.96593 8.37266 1.39175 7.5H1.39294Z" fill="#829DFF"/>
<path d="M9.5 4.53125C8.71264 4.53125 7.95753 4.84403 7.40078 5.40078C6.84403 5.95753 6.53125 6.71264 6.53125 7.5C6.53125 8.28736 6.84403 9.04247 7.40078 9.59922C7.95753 10.156 8.71264 10.4688 9.5 10.4688C10.2874 10.4688 11.0425 10.156 11.5992 9.59922C12.156 9.04247 12.4688 8.28736 12.4688 7.5C12.4688 6.71264 12.156 5.95753 11.5992 5.40078C11.0425 4.84403 10.2874 4.53125 9.5 4.53125ZM5.34375 7.5C5.34375 6.39769 5.78164 5.34054 6.56109 4.56109C7.34054 3.78164 8.39769 3.34375 9.5 3.34375C10.6023 3.34375 11.6595 3.78164 12.4389 4.56109C13.2184 5.34054 13.6562 6.39769 13.6562 7.5C13.6562 8.60231 13.2184 9.65946 12.4389 10.4389C11.6595 11.2184 10.6023 11.6562 9.5 11.6562C8.39769 11.6562 7.34054 11.2184 6.56109 10.4389C5.78164 9.65946 5.34375 8.60231 5.34375 7.5Z" fill="#829DFF"/>
</svg>
