<svg width="14" height="14" viewBox="0 0 14 14" fill="none" xmlns="http://www.w3.org/2000/svg">
<path d="M13.4862 5.77656H7.13525V8.38691H10.7634C10.6069 9.23066 10.1323 9.94434 9.41689 10.4225C8.81221 10.8268 8.04053 11.0658 7.1335 11.0658C5.37744 11.0658 3.89209 9.8793 3.36123 8.28496C3.22764 7.88066 3.15029 7.44824 3.15029 7.00352C3.15029 6.55879 3.22764 6.12637 3.36123 5.72207C3.89385 4.12949 5.3792 2.94297 7.13525 2.94297C8.1249 2.94297 9.0126 3.28398 9.71221 3.95195L11.6458 2.0166C10.4769 0.926758 8.95283 0.258789 7.13525 0.258789C4.50029 0.258789 2.22041 1.77051 1.11123 3.9748C0.654199 4.88535 0.394043 5.91543 0.394043 7.00527C0.394043 8.09512 0.654199 9.12344 1.11123 10.034C2.22041 12.2383 4.50029 13.75 7.13525 13.75C8.95635 13.75 10.4821 13.1453 11.5966 12.1152C12.871 10.941 13.6075 9.21133 13.6075 7.15645C13.6075 6.67832 13.5653 6.21953 13.4862 5.77656Z" fill="white"/>
</svg>
