<svg width="38" height="38" viewBox="0 0 38 38" fill="none" xmlns="http://www.w3.org/2000/svg">
<g clip-path="url(#clip0_1_1031)">
<path fill-rule="evenodd" clip-rule="evenodd" d="M20.5834 3.16666C21.7563 3.16475 22.8885 3.59685 23.7618 4.37976C24.6352 5.16266 25.188 6.24101 25.3138 7.40714C25.4396 8.57327 25.1295 9.74471 24.4432 10.6959C23.757 11.6471 22.7431 12.3107 21.5968 12.559L21.326 12.6097L23.5997 16.2466L26.3293 15.1541C26.7048 15.0025 27.1241 15.0005 27.5009 15.1486C27.8778 15.2966 28.1836 15.5834 28.3555 15.9499C28.5275 16.3165 28.5524 16.735 28.4253 17.1194C28.2982 17.5039 28.0286 17.825 27.672 18.0167L27.5042 18.0959L24.7761 19.1868C24.1294 19.4456 23.4155 19.4839 22.7448 19.2958C22.0742 19.1077 21.4842 18.7038 21.0663 18.1466L20.9143 17.9249L20.6563 17.5132L19.6968 21.3512C19.6137 21.6852 19.4768 22.0034 19.2914 22.2933L19.1489 22.4992L21.7662 24.4435C22.3905 24.9074 22.8222 25.5849 22.979 26.3467L23.0249 26.6348L23.5838 31.6667H23.7501C24.1537 31.6671 24.5418 31.8216 24.8353 32.0987C25.1287 32.3757 25.3053 32.7543 25.3289 33.1572C25.3526 33.5601 25.2215 33.9568 24.9625 34.2662C24.7035 34.5757 24.3361 34.7746 23.9353 34.8222L23.7501 34.8333H22.3093C21.913 34.8334 21.5286 34.6984 21.2194 34.4506C20.9103 34.2027 20.6949 33.8569 20.6088 33.4701L20.5771 33.2848L19.8773 26.9847L14.8898 23.2797C14.801 23.2145 14.7193 23.1402 14.6459 23.0581C14.2061 22.7059 13.8682 22.2428 13.667 21.7165C13.4657 21.1902 13.4085 20.6198 13.5012 20.064L13.5534 19.8154L14.8106 14.7852L12.3248 15.5293L11.0027 19.5003C10.8757 19.8845 10.6064 20.2056 10.2502 20.3975C9.89392 20.5894 9.4777 20.6376 9.08701 20.5322C8.69631 20.4268 8.36079 20.1759 8.14934 19.8308C7.93789 19.4858 7.86657 19.073 7.95001 18.677L7.99751 18.4997L9.32118 14.5287C9.46822 14.088 9.7104 13.6852 10.0305 13.3486C10.3507 13.0121 10.741 12.75 11.1737 12.5812L11.4159 12.4972L16.8578 10.8648C16.3037 10.1648 15.9581 9.32285 15.8606 8.43542C15.7631 7.54799 15.9177 6.65105 16.3066 5.84745C16.6955 5.04384 17.303 4.36611 18.0595 3.89196C18.8159 3.4178 19.6907 3.16643 20.5834 3.16666ZM12.9834 24.3833C13.2249 24.0608 13.5803 23.8425 13.9772 23.7729C14.374 23.7032 14.7825 23.7875 15.1194 24.0085C15.4562 24.2296 15.6962 24.5707 15.7903 24.9625C15.8844 25.3542 15.8257 25.7671 15.626 26.1171L15.5168 26.2833L13.5914 28.8515C13.2514 29.3052 12.7602 29.6223 12.2067 29.7454C11.6532 29.8686 11.0739 29.7896 10.5736 29.5228L10.3741 29.4025L7.31826 27.3647C7.0151 27.6054 6.63429 27.7267 6.24779 27.7056C5.86129 27.6846 5.49589 27.5227 5.22064 27.2506C4.94538 26.9785 4.77935 26.6149 4.75391 26.2287C4.72848 25.8425 4.8454 25.4603 5.08259 25.1544L5.21401 25.0056L5.99618 24.2234C6.2327 23.9869 6.53742 23.8306 6.86746 23.7763C7.19749 23.7221 7.53623 23.7727 7.83601 23.921L8.01493 24.0223L11.5078 26.3514L12.9834 24.3833ZM20.5834 6.33333C20.1635 6.33333 19.7608 6.50014 19.4638 6.79708C19.1669 7.09401 19.0001 7.49674 19.0001 7.91666C19.0001 8.33659 19.1669 8.73932 19.4638 9.03625C19.7608 9.33318 20.1635 9.5 20.5834 9.5C21.0034 9.5 21.4061 9.33318 21.703 9.03625C21.9999 8.73932 22.1668 8.33659 22.1668 7.91666C22.1668 7.49674 21.9999 7.09401 21.703 6.79708C21.4061 6.50014 21.0034 6.33333 20.5834 6.33333Z" fill="#1A1A1A"/>
</g>
<defs>
<clipPath id="clip0_1_1031">
<rect width="38" height="38" fill="white"/>
</clipPath>
</defs>
</svg>
