<svg width="18" height="14" viewBox="0 0 18 14" fill="none" xmlns="http://www.w3.org/2000/svg">
<path d="M17.7321 1.70275C17.1059 1.98025 16.4331 2.16775 15.7259 2.2525C16.4556 1.81584 17.0016 1.1286 17.2619 0.318997C16.5763 0.726239 15.8259 1.01289 15.0434 1.1665C14.5172 0.604646 13.8202 0.232241 13.0606 0.107102C12.3011 -0.0180369 11.5215 0.11109 10.8428 0.474436C10.1642 0.837782 9.62447 1.41502 9.3075 2.11652C8.99054 2.81803 8.91404 3.60456 9.08989 4.354C7.70065 4.28424 6.34161 3.92316 5.10095 3.29418C3.8603 2.66519 2.76577 1.78237 1.88839 0.702997C1.58839 1.2205 1.41589 1.8205 1.41589 2.4595C1.41555 3.03474 1.55721 3.60118 1.8283 4.10855C2.09938 4.61591 2.49151 5.04852 2.96989 5.368C2.41509 5.35034 1.87254 5.20043 1.38739 4.93075V4.97575C1.38733 5.78255 1.66641 6.56453 2.17727 7.18899C2.68814 7.81346 3.39932 8.24194 4.19014 8.40175C3.67547 8.54103 3.13589 8.56155 2.61214 8.46175C2.83526 9.15596 3.26988 9.76302 3.85516 10.1979C4.44044 10.6329 5.14707 10.8739 5.87614 10.8872C4.63851 11.8588 3.11005 12.3858 1.53664 12.3835C1.25792 12.3836 0.979444 12.3673 0.702637 12.3347C2.29974 13.3616 4.15889 13.9066 6.05764 13.9045C12.4851 13.9045 15.9989 8.581 15.9989 3.964C15.9989 3.814 15.9951 3.6625 15.9884 3.5125C16.6719 3.01823 17.2618 2.40617 17.7306 1.705L17.7321 1.70275V1.70275Z" fill="white"/>
</svg>
